<svg width="510" height="512" viewBox="0 0 510 512" fill="none" xmlns="http://www.w3.org/2000/svg">
<g clip-path="url(#clip0)">
<path d="M435.557 109.381L399.094 145.844L435.557 182.307L472.02 145.844L435.557 109.381Z" fill="#22272C"/>
<path d="M399.088 145.85L362.625 182.312L399.088 218.775L435.551 182.313L399.088 145.85Z" fill="#2A2F34"/>
<path d="M472.025 145.85L435.562 182.312L472.025 218.775L508.488 182.313L472.025 145.85Z" fill="#2A2F34"/>
<path d="M435.588 182.318L399.125 218.781L435.588 255.244L472.051 218.781L435.588 182.318Z" fill="#35393D"/>
<path d="M362.65 182.318L326.188 218.781L362.65 255.244L399.113 218.781L362.65 182.318Z" fill="#35393D"/>
<path d="M326.15 218.787L289.688 255.25L326.15 291.713L362.613 255.25L326.15 218.787Z" fill="#44474A"/>
<path d="M399.088 218.787L362.625 255.25L399.088 291.713L435.551 255.25L399.088 218.787Z" fill="#44474A"/>
<path d="M362.65 255.225L326.188 291.688L362.65 328.15L399.113 291.688L362.65 255.225Z" fill="#56595B"/>
<path d="M289.713 255.225L253.25 291.688L289.713 328.15L326.176 291.688L289.713 255.225Z" fill="#56595B"/>
<path d="M70.9315 255.225L34.4688 291.688L70.9315 328.15L107.394 291.688L70.9315 255.225Z" fill="#56595B"/>
<path d="M253.213 291.725L216.75 328.188L253.213 364.65L289.676 328.188L253.213 291.725Z" fill="#6D7071"/>
<path d="M326.15 291.725L289.688 328.188L326.15 364.65L362.613 328.187L326.15 291.725Z" fill="#6D7071"/>
<path d="M107.4 291.725L70.9375 328.188L107.4 364.65L143.863 328.187L107.4 291.725Z" fill="#6D7071"/>
<path d="M34.4628 291.725L-2 328.188L34.4628 364.65L70.9255 328.187L34.4628 291.725Z" fill="#6D7071"/>
<path d="M143.838 328.162L107.375 364.625L143.838 401.088L180.301 364.625L143.838 328.162Z" fill="#888A8A"/>
<path d="M216.775 328.162L180.312 364.625L216.775 401.088L253.238 364.625L216.775 328.162Z" fill="#888A8A"/>
<path d="M289.713 328.162L253.25 364.625L289.713 401.088L326.176 364.625L289.713 328.162Z" fill="#888A8A"/>
<path d="M70.9316 328.162L34.4688 364.625L70.9316 401.088L107.394 364.625L70.9316 328.162Z" fill="#888A8A"/>
<path d="M180.307 364.631L143.844 401.094L180.307 437.557L216.769 401.094L180.307 364.631Z" fill="#A8A9A6"/>
<path d="M253.244 364.631L216.781 401.094L253.244 437.557L289.707 401.094L253.244 364.631Z" fill="#A8A9A6"/>
<path d="M107.369 364.631L70.9062 401.094L107.369 437.557L143.832 401.094L107.369 364.631Z" fill="#A8A9A6"/>
<path d="M216.744 401.1L180.281 437.562L216.744 474.025L253.207 437.562L216.744 401.1Z" fill="#CBCBC7"/>
<path d="M143.838 401.1L107.375 437.562L143.838 474.025L180.301 437.562L143.838 401.1Z" fill="#CBCBC7"/>
<path d="M180.306 437.568L143.844 474.031L180.306 510.494L216.769 474.031L180.306 437.568Z" fill="#F3F1EB"/>
</g>
<defs>
<clipPath id="clip0">
<rect x="-2" width="512" height="512" fill="white"/>
</clipPath>
</defs>
</svg>
